<svg xmlns="http://www.w3.org/2000/svg" viewBox="0 0 1652.5 277.48"><defs><style>.cls-1{fill:#053897;}</style></defs><g id="Layer_2" data-name="Layer 2"><g id="Layer_1-2" data-name="Layer 1"><path class="cls-1" d="M34.8,209.16c-3.29-.17-6.53-.43-9.35-.77L3.9,205.7l16.57,14.07c2.22,1.89,44.64,37.3,105.63,51.67v0l.92.2c3,.69,6.07,1.32,9.16,1.91,1,.2,2.07.4,3.12.58l.82.15v0a212.43,212.43,0,0,0,36.06,3.19h.26l.26,0a90,90,0,0,0,63-32.87c0-.06.09-.11.13-.16.89-1.1,1.74-2.23,2.57-3.37.4-.55.8-1.1,1.18-1.65.65-.93,1.29-1.87,1.9-2.82.13-.21.25-.42.38-.62.57-.91,1.12-1.82,1.66-2.75.29-.51.61-1,.9-1.52,1-1.82,1.94-3.69,2.83-5.6.07-.16.14-.34.22-.5.83-1.84,1.6-3.72,2.31-5.62.06-.15.12-.31.17-.47a87.22,87.22,0,0,0,5.1-24.56l-9.58,2.65c-1.21.41-2.52.91-3.81,1.39a76,76,0,0,1-3.58,15c-.47,1.33-1,2.65-1.5,4-.27.63-.55,1.26-.83,1.88q-1.47,3.3-3.26,6.43c-.39.69-.76,1.4-1.17,2.08-.59,1-1.23,1.88-1.85,2.81s-1.23,1.79-1.87,2.66h0c-.6.81-1.22,1.62-1.85,2.41-.89,1.1-1.81,2.17-2.76,3.22-.48.52-.92,1.07-1.41,1.58-1.44,1.5-2.94,2.93-4.5,4.31a77.48,77.48,0,0,1-45.15,19.2A197.23,197.23,0,0,1,139.85,261c-1.79-.33-3.54-.7-5.3-1.08-1.59-.34-3.17-.69-4.74-1.06C93.73,250.38,64,234,46.36,222.5c5.58,0,9.74,0,10.09-.05L83.5,222,59.17,210.16c-23.8-11.6-35.49-35.88-40.6-50.56a56.17,56.17,0,0,0,10.56,2.12l13.38,1.13-7.4-11.17C21.47,131.07,28.66,98.09,34.28,80a116.61,116.61,0,0,0,7.41,10.13l8.65,10.21L53,87.27c6.58-32.34,26.71-52.9,39.39-63-1.3,10.87-3.07,21-3.12,21.22L85.1,69.35l15.59-18.57c22-26.19,50-33.08,69.39-34.29a219,219,0,0,0-34.72,23.94c-20.78,17.88-32.9,44.28-38.27,58.4-12.16,31.81-12.51,65.62-1,95.1a137.87,137.87,0,0,0,13.51,25.88l7.27,11,4.28-12.51c.13-.34,13.34-38.09,40.61-48.65,12.34-4.81,26.06-3.16,40.78,4.85l2.55,1.42,2.77-1a61.12,61.12,0,0,1,31.77-.87c.95.18,1.86.44,2.82.69-3.34,1.13-7,2.47-10.83,4.07-16.19,6.86-35.53,18.73-48.31,38.48a85.88,85.88,0,0,0-13,36.16c1.71.06,3.43.14,5.12.15a68.5,68.5,0,0,0,8.29-1.32A73,73,0,0,1,198,219.48c11.87-15.38,28.42-24.61,41.86-29.92,2.25-.87,4.37-1.65,6.4-2.34l12.86-3.55c2.51-.56,4-.78,4-.78l2.39-.35,15.19-2.2-15.06-9.4c-.57-.34-1.09-.65-1.65-.95a55.17,55.17,0,0,0-6.06-3.2,5.67,5.67,0,0,0-.78-.39L253,164.62a77,77,0,0,0-46.63-2.77c-17.35-8.79-33.93-10.26-49.3-4.28C135,166.18,121,188.08,114.15,202a117.16,117.16,0,0,1-5.89-12.81c-10.39-26.49-10-56.92.95-85.75,8.4-22.12,21-41.47,34.63-53.16,13.77-11.86,31.21-22.73,53.33-33.2l17.62-8.36L195.7,4.89c-2.29-.47-50.6-9.78-90.68,23.33.69-5.58,1.29-11.6,1.55-16.84L107.09,0,97,5.37c-1.69.91-38.31,21-53.07,65.66a87.27,87.27,0,0,1-5.24-9.26L32.47,49l-5.59,13c-.95,2.21-20.47,48.57-8.92,83.64a51.93,51.93,0,0,1-6.1-2.77L0,136.53l2.38,13.24C2.73,151.55,9.18,185.92,34.8,209.16Z"/><path class="cls-1" d="M116.24,116.59a115.82,115.82,0,0,0-4,21,77,77,0,0,1,122.93,11.65,86.31,86.31,0,0,1,16.28,3.42,89.82,89.82,0,0,0-135.17-36.06Z"/><path class="cls-1" d="M381.37,100.57H320.09c-9.79,0-14.42,4.63-14.42,14.16V260.22c0,9.53,4.63,14.17,14.42,14.17h61.28c51,0,78.29-28.33,78.29-86.78C459.66,128.9,432.1,100.57,381.37,100.57Zm0,143.43h-42c-2.31,0-3.34-.77-3.34-3.09V134.05c0-2.32,1-3.09,3.34-3.09h42c33.73,0,47.9,16.73,47.9,56.39C429.27,227.26,415.1,244,381.37,244Z"/><path class="cls-1" d="M582.25,219.28c33.47,0,46.08-14.16,46.08-39.14,0-26.27-13.64-41.72-45.84-41.72h-44c-34,0-47.38,19.06-47.38,44.81v46.35c0,25.75,13.39,44.81,47.38,44.81h83.17V247.86H538.47c-14.94,0-20.87-8-20.87-18.8v-9.78ZM517.6,183.49c0-10.56,5.93-18.8,20.87-18.8h43.78c13.39,0,19.3,6.69,19.3,17,0,10-5.4,16.23-20.09,16.23H517.6Z"/><path class="cls-1" d="M730.57,247.61c-1.28,2.83-3.61,4.12-7.21,4.12-3.34,0-5.67-1.29-6.7-4.12L671.34,138.42H642.5l50,121.29c5.15,12.62,15.2,17.77,30.9,17.77,15.45,0,25.5-4.9,31.16-17.77l52.54-121.29H777.7Z"/><path class="cls-1" d="M982.67,152.59c0-27.81-16.73-52-55.87-52H832.56V131h95.27c16.73,0,24.21,10.55,24.21,22.91s-7,24.21-24.21,24.21H860.1c-19.05,0-27.29,8-27.29,27.55v68.76h30.38V211.55c0-3.09,1.55-4.37,4.39-4.37H912.9l39.65,67.21h33.73l-40.42-69.53C972.37,197.39,982.67,174.22,982.67,152.59Z"/><path class="cls-1" d="M1095.48,138.42h-81.62v26.27h81.37c14.93,0,20.85,8.24,20.85,18.8v10.3h-64.63c-33.47,0-45.83,14.42-45.83,39.14,0,25.75,13.39,41.46,45.57,41.46h63.61c22.91,0,28.06-7.73,28.06-27.3V183.23C1142.86,157.48,1129.47,138.42,1095.48,138.42Zm20.6,102.49c0,4.89-2.06,7-7.46,7h-57.17c-13.65,0-19-6.44-19-16.48s5.15-16,19.57-16h64.11Z"/><path class="cls-1" d="M1247.42,247.61c-1.28,2.83-3.6,4.12-7.21,4.12-3.34,0-5.66-1.29-6.69-4.12L1188.2,138.42h-28.84l50,121.29c5.15,12.62,15.2,17.77,30.9,17.77,15.45,0,25.5-4.9,31.17-17.77l52.53-121.29h-29.36Z"/><path class="cls-1" d="M1429.24,219.28c33.47,0,46.08-14.16,46.08-39.14,0-26.27-13.64-41.72-45.83-41.72h-44c-34,0-47.38,19.06-47.38,44.81v46.35c0,25.75,13.39,44.81,47.38,44.81h83.17V247.86h-83.17c-14.93,0-20.87-8-20.87-18.8v-9.78Zm-64.65-35.79c0-10.56,5.94-18.8,20.87-18.8h43.78c13.39,0,19.3,6.69,19.3,17,0,10-5.4,16.23-20.08,16.23h-63.87Z"/><path class="cls-1" d="M1584,138.42h-56.14c-13.66,0-19.06,5.15-19.06,21.12V274.39h27.3V168.55c0-2.57,1-3.86,3.34-3.86H1584c28.57,0,40.93,11.84,40.93,33.22v76.48h27.56V197.91C1652.5,160.31,1630.09,138.42,1584,138.42Z"/></g></g></svg>